<?xml version="1.0" encoding="utf-8"?><svg xmlns="http://www.w3.org/2000/svg" xmlns:xlink="http://www.w3.org/1999/xlink"><symbol viewBox="0 0 348.077 348.077" id="phone" xmlns="http://www.w3.org/2000/svg"><path d="M340.273 275.083l-53.755-53.761c-10.707-10.664-28.438-10.34-39.518.744l-27.082 27.076a792.327 792.327 0 0 1-5.344-2.973c-17.102-9.476-40.509-22.464-65.14-47.113-24.704-24.701-37.704-48.144-47.209-65.257-1.003-1.813-1.964-3.561-2.913-5.221l18.176-18.149 8.936-8.947c11.097-11.1 11.403-28.826.721-39.521L73.39 8.194c-10.682-10.68-28.421-10.356-39.518.744l-15.15 15.237.414.411c-5.08 6.482-9.325 13.958-12.484 22.02C3.74 54.28 1.927 61.603 1.098 68.941-6 127.785 20.89 181.564 93.866 254.541c100.875 100.868 182.167 93.248 185.674 92.876 7.638-.913 14.958-2.738 22.397-5.627 7.992-3.122 15.463-7.361 21.941-12.43l.331.294 15.348-15.029c11.074-11.098 11.393-28.83.716-39.542z"/></symbol><symbol viewBox="0 0 24 24" id="tg" xmlns="http://www.w3.org/2000/svg"><path d="M9.028 20.837c-.714 0-.593-.271-.839-.949l-2.103-6.92L22.263 3.37"/><path d="M9.028 20.837c.552 0 .795-.252 1.105-.553l2.941-2.857-3.671-2.214"/><path d="M9.403 15.213l8.89 6.568c1.015.56 1.748.271 2-.942l3.62-17.053c.372-1.487-.564-2.159-1.534-1.72L1.125 10.263c-1.45.582-1.443 1.392-.264 1.753l5.455 1.7L18.94 5.753c.595-.36 1.143-.167.694.232"/></symbol><symbol viewBox="0 0 24 24" id="tw" xmlns="http://www.w3.org/2000/svg"><path d="M23.954 4.569a10 10 0 0 1-2.825.775 4.958 4.958 0 0 0 2.163-2.723c-.951.555-2.005.959-3.127 1.184a4.92 4.92 0 0 0-8.384 4.482C7.691 8.094 4.066 6.13 1.64 3.161a4.822 4.822 0 0 0-.666 2.475c0 1.71.87 3.213 2.188 4.096a4.904 4.904 0 0 1-2.228-.616v.061a4.923 4.923 0 0 0 3.946 4.827 4.996 4.996 0 0 1-2.212.085 4.937 4.937 0 0 0 4.604 3.417 9.868 9.868 0 0 1-6.102 2.105c-.39 0-.779-.023-1.17-.067a13.995 13.995 0 0 0 7.557 2.209c9.054 0 13.999-7.496 13.999-13.986 0-.209 0-.42-.015-.63a9.936 9.936 0 0 0 2.46-2.548l-.047-.02z"/></symbol><symbol viewBox="0 0 24 24" id="vk" xmlns="http://www.w3.org/2000/svg"><path d="M11.701 18.771h1.437s.433-.047.654-.284c.21-.221.21-.63.21-.63s-.031-1.927.869-2.21c.887-.281 2.012 1.86 3.211 2.683.916.629 1.605.494 1.605.494l3.211-.044s1.682-.105.887-1.426c-.061-.105-.451-.975-2.371-2.76-2.012-1.861-1.742-1.561.676-4.787 1.469-1.965 2.07-3.166 1.875-3.676-.166-.48-1.26-.361-1.26-.361l-3.602.031s-.27-.031-.465.09c-.195.119-.314.391-.314.391s-.572 1.529-1.336 2.82c-1.623 2.729-2.268 2.879-2.523 2.699-.604-.391-.449-1.58-.449-2.432 0-2.641.404-3.75-.781-4.035-.39-.091-.681-.15-1.685-.166-1.29-.014-2.378.01-2.995.311-.405.203-.72.652-.539.675.24.03.779.146 1.064.537.375.506.359 1.636.359 1.636s.211 3.116-.494 3.503c-.495.262-1.155-.28-2.595-2.756-.735-1.26-1.291-2.67-1.291-2.67s-.105-.256-.299-.406c-.227-.165-.557-.225-.557-.225l-3.435.03s-.51.016-.689.24c-.166.195-.016.615-.016.615s2.686 6.287 5.732 9.453c2.79 2.902 5.956 2.715 5.956 2.715l-.05-.055z"/></symbol></svg>